<svg xmlns="http://www.w3.org/2000/svg" width="217.598" height="44.22" viewBox="0 0 217.598 44.22">
  <g id="Group_1" data-name="Group 1" transform="translate(-441.462 -381.2)">
    <path id="Path_1" data-name="Path 1" d="M6.9,3.42a1.4,1.4,0,0,1-1.2-.78A5.012,5.012,0,0,1,4.92,1.5a4.829,4.829,0,0,1-.27-2.55A24.733,24.733,0,0,1,5.94-6.24q.6-2.28.96-3.33a5.417,5.417,0,0,0,.36-1.53,3.546,3.546,0,0,1,.15-1.11,2.746,2.746,0,0,0,.15-.87q.36,0,.72-.66a6.728,6.728,0,0,0,.6-1.8q.24-1.02.45-1.65a3.368,3.368,0,0,0,.21-.87,7.139,7.139,0,0,0,.63-1.5,18.293,18.293,0,0,1,1.05-2.46q.48-1.8,1.08-3.75t1.23-3.66q.63-1.71,1.05-2.67.66-1.86,1.02-2.61t0-.99q-.42-.3-.39-1.53a2.793,2.793,0,0,1,1.11-2.13A3.6,3.6,0,0,1,18-40.47a7.6,7.6,0,0,1,2.34-.33q1.32,0,2.76.12,1.08.06,2.31.06h1.53q.54.24,1.32.54t1.41.57q.63.27.63.45a.416.416,0,0,0,.27.45,4.743,4.743,0,0,0,.57.15,2.917,2.917,0,0,1,1.38.75,17.591,17.591,0,0,1,1.95,1.8,6.93,6.93,0,0,1,1.41,2.07q.48,1.02.81,1.92a5.176,5.176,0,0,1,.03,2.58,11.185,11.185,0,0,1-.27,1.8,3.313,3.313,0,0,1-.45,1.2,3.1,3.1,0,0,0-.66.6,1.074,1.074,0,0,0-.3.66,3.955,3.955,0,0,1-.48,1.17q-.48.93-1.2,2.1T31.8-19.5a12.6,12.6,0,0,1-1.56,1.8,12.014,12.014,0,0,1-1.83,1.8,23,23,0,0,1-1.89,1.38,33.5,33.5,0,0,1-3.57,1.38,36.331,36.331,0,0,1-3.87,1.05,12.206,12.206,0,0,1-3,.33,12.474,12.474,0,0,0-2.28.45,1.445,1.445,0,0,0-.78,1.05q-.3.78-.57,1.62a4.588,4.588,0,0,0-.27,1.2q-.12.24-.51,1.32t-.9,2.52q-.51,1.44-.93,2.88T9.18,1.74A2.026,2.026,0,0,1,8.19,3,2.755,2.755,0,0,1,6.9,3.42Zm8.52-20.04q.24.24,1.56.06a14.558,14.558,0,0,0,3.18-.9,22.509,22.509,0,0,0,2.43-1.02,24.775,24.775,0,0,0,2.37-1.32,10.925,10.925,0,0,0,1.26-1.05,23.41,23.41,0,0,0,1.86-2.13q.18-.3.63-1.17t.81-1.65a11.255,11.255,0,0,0,1.08-2.49,4.808,4.808,0,0,0,.24-2.73,5.53,5.53,0,0,0-1.2-2.61,5.18,5.18,0,0,0-2.28-1.53,20.615,20.615,0,0,0-2.19-.3,7.811,7.811,0,0,0-1.89.12,2.537,2.537,0,0,0-1.35.84,13.281,13.281,0,0,0-1.11,2.28q-.42.84-1.2,2.31a22.841,22.841,0,0,0-1.32,2.97q-1.08,3.96-1.89,6.06t-1.05,2.76a2.062,2.062,0,0,1-.06.93A.53.53,0,0,0,15.42-16.62ZM33.12-1.26a2.624,2.624,0,0,0-1.05-.96q-.81-.48-.81-.72a1.885,1.885,0,0,0-.27-.75,3.2,3.2,0,0,0-.51-.75q-.3-.36.18-1.77A34.548,34.548,0,0,1,32.1-9.66q.96-2.04,2.1-4.14a6.884,6.884,0,0,0,.96-1.26,6.41,6.41,0,0,1,.72-1.02.68.68,0,0,1,.18-.45.54.54,0,0,1,.42-.21l.48-.96a6.428,6.428,0,0,1,.75-.96q.63-.72,1.53-1.59t1.83-1.65a12.817,12.817,0,0,1,1.53-1.14,4.285,4.285,0,0,1,2.61-.78,3.829,3.829,0,0,1,2.31.84q.18.18.81.72t1.44,1.2q.81.66,1.41,1.2l2.22,1.98-1.02,3a8.1,8.1,0,0,0-.39,4.2A11.65,11.65,0,0,0,53.1-7.56a2.457,2.457,0,0,0,.81,1.02,3.072,3.072,0,0,0,1.35.48,1.947,1.947,0,0,1,.9.36,1.1,1.1,0,0,1,.42.96,3.309,3.309,0,0,1-.51,2.07,1.945,1.945,0,0,1-1.11.75,8.023,8.023,0,0,1-3.78-.42,6.608,6.608,0,0,1-3.24-3.42,8.136,8.136,0,0,1-.63-1.35,10.223,10.223,0,0,1-.45-1.29q-.24.3-.63.75t-.75.81q-4.26,4.32-7.29,5.61T33.12-1.26Zm3.3-4.98a2.449,2.449,0,0,0,1.32-.45,19.876,19.876,0,0,0,2.4-1.71q2.04-1.74,3.36-2.88a15.93,15.93,0,0,0,2.58-2.94l1.32-2.16a5.438,5.438,0,0,0-1.08-1.8,1.466,1.466,0,0,0-.96-.42,3.035,3.035,0,0,0-1.86.99,18.782,18.782,0,0,0-2.43,2.88q-1.35,1.89-3.03,4.71a13.829,13.829,0,0,0-1.2,2.55ZM61.62.36a9.182,9.182,0,0,1-2.97-1.77q-.93-.93-.75-1.65a1.684,1.684,0,0,1,.42-.66,1.96,1.96,0,0,1,1.35-.27,17.674,17.674,0,0,1,3.27.57q.66,0,1.32-.06a10.67,10.67,0,0,0,1.23-.18,3.909,3.909,0,0,0,.93-.3q.3-.12.18-.33a1.7,1.7,0,0,0-.42-.45,1.1,1.1,0,0,0-.54-.39,1.9,1.9,0,0,0-.54-.09,1.515,1.515,0,0,0-.51-.6q-.39-.3-.93-.66-1.32-1.08-2.4-1.92t-.84-1.26v-.3q-.42,0-.78-1.17a7.3,7.3,0,0,1-.36-2.13,6.093,6.093,0,0,1,.51-2.4,10.893,10.893,0,0,1,1.32-2.28,17.888,17.888,0,0,1,1.65-1.92q1.14-1.08,2.43-2.13a18.74,18.74,0,0,1,2.82-1.89A14.585,14.585,0,0,1,71.4-25.2a9.217,9.217,0,0,1,1.92-.18,3.06,3.06,0,0,1,1.56.3,1.1,1.1,0,0,1,1.2.15,7.155,7.155,0,0,1,1.44,1.23,6.1,6.1,0,0,1,1.08,1.56q0,.72-.03,1.77a15.02,15.02,0,0,1-.15,1.83q-.12.78-.54.78l-.15.03q-.15.03-.15.33a2.08,2.08,0,0,1-.9,1.38,15.722,15.722,0,0,1-2.16,1.26q-1.02.48-1.56.06-.36-.24-.66-.48a2.622,2.622,0,0,1-.54-.6l-.15-.27a1.056,1.056,0,0,1-.15-.51.68.68,0,0,1,.18-.45l.18-.21a8.835,8.835,0,0,0,1.29-1.44,5.27,5.27,0,0,0,.63-1.17,2.6,2.6,0,0,0,.18-.81q0-.36-.15-.45a1.42,1.42,0,0,0-.63-.09,4.162,4.162,0,0,0-1.29.48,20.394,20.394,0,0,0-2.07,1.17A13.184,13.184,0,0,0,68.1-18.3q-.24.42-.33.54a.39.39,0,0,1-.33.12q0-.24-.3.06a9.281,9.281,0,0,0-.72.84q-.42.54-.84,1.14t-.66.96a3.146,3.146,0,0,1-.27.99,1.669,1.669,0,0,0-.15.93,1.882,1.882,0,0,0,.6,1.14q.54.54,1.56,1.38,2.1,1.56,3.15,2.46A11.215,11.215,0,0,1,71.28-6.3a2.742,2.742,0,0,1,.54,1.08,3.143,3.143,0,0,1,.24,3.21A5.019,5.019,0,0,1,69.66.06a8.63,8.63,0,0,1-2.1.57,16.1,16.1,0,0,1-3.15.24A7.553,7.553,0,0,1,61.62.36Zm25.62,0a5.509,5.509,0,0,1-1.68-.84q-.84-.6-1.74-1.38A7.207,7.207,0,0,1,82.8-3.63a6,6,0,0,1-.33-1.92q-.03-1.11-.03-2.85a10.968,10.968,0,0,1,.27-2.04q.27-1.32.6-2.76t.63-2.55q.3-1.11.36-1.47a.648.648,0,0,0-.6-.9,9.3,9.3,0,0,0-1.71-.09,2.578,2.578,0,0,1-1.23-.15q-.24-.06-.24-.63v-.57a.33.33,0,0,0-.24-.33.862.862,0,0,1-.42-.39q-.12-.24.3-.9a1.6,1.6,0,0,1,1.08-.78,13.11,13.11,0,0,1,1.62-.21,10.833,10.833,0,0,0,2.19-.42,3.424,3.424,0,0,0,1.71-1.05q.54-1.32,1.2-2.85t1.26-2.7a11.139,11.139,0,0,1,.84-1.47,3.746,3.746,0,0,1,2.1-.45,2.1,2.1,0,0,1,1.68,1.05,3.5,3.5,0,0,0,.51.6.6.6,0,0,1,.18.54,4.592,4.592,0,0,1-.48,1.29q-.45.93-1.47,2.85-.3.6-.54,1.05l-.24.45a3.2,3.2,0,0,0,.72.06q.48,0,1.2-.06.66-.12,1.44-.21a4.463,4.463,0,0,1,1.38.03,2.525,2.525,0,0,1,2.04.78,3.22,3.22,0,0,1,.72,1.98,1.133,1.133,0,0,1-.48,1.14,3.713,3.713,0,0,1-2.22.48q-.54,0-1.56.06t-2.1.12q-1.08.06-1.83.15t-.75.21a2.97,2.97,0,0,0-.57.93,17.915,17.915,0,0,0-.78,1.95q-.39,1.14-.69,2.16a36.587,36.587,0,0,0-.6,3.96,16.981,16.981,0,0,0-.03,3.33,3.575,3.575,0,0,0,.69,2.01q.54.54,1.65-.03A11.876,11.876,0,0,0,92.1-5.58q1.08-.9,1.86-.57a1.7,1.7,0,0,1,.99,1.32,2.744,2.744,0,0,1-.57,2.13A5.905,5.905,0,0,1,92.34-.78,9.757,9.757,0,0,1,89.64.33,4.657,4.657,0,0,1,87.24.36Zm18.12.72a6.552,6.552,0,0,1-5.07-1.92q-1.77-1.92-1.77-5.88a15.928,15.928,0,0,1,.81-4.74,27.721,27.721,0,0,1,2.16-5.04,23.49,23.49,0,0,1,2.97-4.29,9.788,9.788,0,0,1,3.24-2.55,5.47,5.47,0,0,1,1.29-.45,6.345,6.345,0,0,1,1.35-.15,15.556,15.556,0,0,1,1.59.09,6.413,6.413,0,0,1,1.65.39,5.226,5.226,0,0,1,2.43,1.62,5.133,5.133,0,0,1,1.05,3.48,7.553,7.553,0,0,1-.12,1.29,5.551,5.551,0,0,1-.42,1.35,12.814,12.814,0,0,1-2.37,3.78,9.245,9.245,0,0,1-3.33,2.52,3.718,3.718,0,0,1-.93.33,4.731,4.731,0,0,1-.93.09,6.557,6.557,0,0,1-2.25-.36,7.6,7.6,0,0,1-1.83-.96l-.48-.42-.3.6a12.7,12.7,0,0,0-.57,1.92,6.8,6.8,0,0,0-.15,1.14q0,.72.06,1.47a2.706,2.706,0,0,0,.36,1.23,1.7,1.7,0,0,0,.63.48,2.368,2.368,0,0,0,.99.18q.36,0,.69-.03a3.8,3.8,0,0,0,.57-.09,4.143,4.143,0,0,0,1.77-.81,9.012,9.012,0,0,1,1.47-.99l.24-.12-.06-.18q1.02-.54,1.38-.69a3.332,3.332,0,0,0,.54-.27.746.746,0,0,1,.54-.24,2.251,2.251,0,0,1,1.65.45,1.681,1.681,0,0,1,.81,1.41,2.545,2.545,0,0,1-.51,1.14,9.629,9.629,0,0,1-1.26,1.53,6.637,6.637,0,0,1-1.53,1.17,2.749,2.749,0,0,0-.36.15,3.354,3.354,0,0,0-.36.21h.06a1.451,1.451,0,0,1-1.08.72h-.48a3.286,3.286,0,0,1-1.56.93A7.131,7.131,0,0,1,105.36,1.08Zm3.12-14.46a2.642,2.642,0,0,0,.99-.18,6.965,6.965,0,0,0,.87-.42,4.568,4.568,0,0,0,1.86-2.64,2.621,2.621,0,0,0-.3-2.46.774.774,0,0,0-.3-.27.928.928,0,0,0-.42-.09,3.245,3.245,0,0,0-1.47.42,6.519,6.519,0,0,0-1.59,1.2,9.956,9.956,0,0,0-1.44,1.86l-.78,1.26a1.646,1.646,0,0,1,.21-.09.494.494,0,0,1,.15-.03.726.726,0,0,1,.72.36,4.729,4.729,0,0,0,.45.72A1.251,1.251,0,0,0,108.48-13.38Z" transform="translate(542 422)" fill="#2563eb"/>
    <path id="Path_2" data-name="Path 2" d="M20.841-9.7a12.053,12.053,0,0,1-1.077,5.159A8.367,8.367,0,0,1,16.369-.851,11.246,11.246,0,0,1,10.523.533,13.393,13.393,0,0,1,2.462-2.072L4.41-5.108A11.623,11.623,0,0,0,7.436-3.641a10.208,10.208,0,0,0,2.9.421,5.375,5.375,0,0,0,4.226-1.723A7.053,7.053,0,0,0,16.1-9.805V-24.656H7.59v-3.651H20.841ZM47.118-8a7.9,7.9,0,0,1-1.282,4.462A8.368,8.368,0,0,1,42.113-.523,14.249,14.249,0,0,1,36.328.554a16.592,16.592,0,0,1-5.949-.995,13.034,13.034,0,0,1-4.472-2.8l2.605-2.913A11.159,11.159,0,0,0,31.99-3.959a11.652,11.652,0,0,0,4.318.759,8,8,0,0,0,2.964-.523,4.849,4.849,0,0,0,2.113-1.549,3.98,3.98,0,0,0,.79-2.5,4.107,4.107,0,0,0-.513-2.133A4.428,4.428,0,0,0,39.9-11.446,19.169,19.169,0,0,0,36.369-12.8a25.9,25.9,0,0,1-5.118-2.051,8.362,8.362,0,0,1-2.995-2.656,6.639,6.639,0,0,1-1.015-3.723,6.649,6.649,0,0,1,1.262-4,8.155,8.155,0,0,1,3.477-2.7,12.486,12.486,0,0,1,4.985-.954,15.212,15.212,0,0,1,5.3.862,12.675,12.675,0,0,1,4.174,2.544l-2.5,2.831a9.9,9.9,0,0,0-3.159-1.887,10.3,10.3,0,0,0-3.528-.615,6.594,6.594,0,0,0-3.7.944A3.054,3.054,0,0,0,32.123-21.5a2.932,2.932,0,0,0,.605,1.887,5.549,5.549,0,0,0,2,1.415,30.011,30.011,0,0,0,4.021,1.436,22.185,22.185,0,0,1,4.472,1.815,7.754,7.754,0,0,1,2.851,2.708A7.924,7.924,0,0,1,47.118-8Zm25.19-6.154a22.133,22.133,0,0,1-1.231,7.723,11.127,11.127,0,0,1-3.651,5.149A9.458,9.458,0,0,1,61.538.554a9.641,9.641,0,0,1-5.908-1.795A10.806,10.806,0,0,1,51.99-6.328a22.394,22.394,0,0,1-1.221-7.785A22.307,22.307,0,0,1,52-21.856a11.187,11.187,0,0,1,3.651-5.179,9.423,9.423,0,0,1,5.887-1.846,9.6,9.6,0,0,1,5.908,1.805,10.865,10.865,0,0,1,3.641,5.118A22.569,22.569,0,0,1,72.308-14.154Zm-4.923,0q0-5.6-1.385-8.308a4.664,4.664,0,0,0-4.462-2.708,4.661,4.661,0,0,0-4.462,2.728q-1.385,2.728-1.385,8.328,0,5.559,1.405,8.256a4.677,4.677,0,0,0,4.441,2.7,4.662,4.662,0,0,0,4.472-2.7Q67.385-8.554,67.385-14.154Zm12.944-9.928q.267,2.81.472,5.549t.205,5.672V0H76.779V-28.308h6.174l9.026,24.1a104.815,104.815,0,0,1-.677-11.2v-12.9h4.226V0H89.333Z" transform="translate(439 422)" fill="#002169"/>
  </g>
</svg>
